<svg xmlns="http://www.w3.org/2000/svg" width="24" height="24" viewBox="0 0 24 24" fill="none">
  <g clip-path="url(#clip0_10403_163)">
    <path
      d="M21.5 4H19.3333V5.33333H21.3333V20H2.66667V5.33333H4.66667V4H2.5C2.34416 4.0026 2.19036 4.03588 2.04738 4.09794C1.9044 4.15999 1.77505 4.24961 1.66671 4.36166C1.55837 4.47371 1.47317 4.60601 1.41596 4.751C1.35876 4.89599 1.33068 5.05083 1.33333 5.20667V20.1267C1.33068 20.2825 1.35876 20.4373 1.41596 20.5823C1.47317 20.7273 1.55837 20.8596 1.66671 20.9717C1.77505 21.0837 1.9044 21.1733 2.04738 21.2354C2.19036 21.2974 2.34416 21.3307 2.5 21.3333H21.5C21.6558 21.3307 21.8096 21.2974 21.9526 21.2354C22.0956 21.1733 22.225 21.0837 22.3333 20.9717C22.4416 20.8596 22.5268 20.7273 22.584 20.5823C22.6412 20.4373 22.6693 20.2825 22.6667 20.1267V5.20667C22.6693 5.05083 22.6412 4.89599 22.584 4.751C22.5268 4.60601 22.4416 4.47371 22.3333 4.36166C22.225 4.24961 22.0956 4.15999 21.9526 4.09794C21.8096 4.03588 21.6558 4.0026 21.5 4Z"
      fill="#666666" />
    <path d="M5.33333 9.33337H6.66667V10.6667H5.33333V9.33337Z" fill="#666666" />
    <path d="M9.33333 9.33337H10.6667V10.6667H9.33333V9.33337Z" fill="#666666" />
    <path d="M13.3333 9.33337H14.6667V10.6667H13.3333V9.33337Z" fill="#666666" />
    <path d="M17.3333 9.33337H18.6667V10.6667H17.3333V9.33337Z" fill="#666666" />
    <path d="M5.33333 12.6666H6.66667V14H5.33333V12.6666Z" fill="#666666" />
    <path d="M9.33333 12.6666H10.6667V14H9.33333V12.6666Z" fill="#666666" />
    <path d="M13.3333 12.6666H14.6667V14H13.3333V12.6666Z" fill="#666666" />
    <path d="M17.3333 12.6666H18.6667V14H17.3333V12.6666Z" fill="#666666" />
    <path d="M5.33333 16H6.66667V17.3333H5.33333V16Z" fill="#666666" />
    <path d="M9.33333 16H10.6667V17.3333H9.33333V16Z" fill="#666666" />
    <path d="M13.3333 16H14.6667V17.3333H13.3333V16Z" fill="#666666" />
    <path d="M17.3333 16H18.6667V17.3333H17.3333V16Z" fill="#666666" />
    <path
      d="M6.66667 6.66671C6.84348 6.66671 7.01305 6.59647 7.13807 6.47145C7.2631 6.34642 7.33333 6.17685 7.33333 6.00004V2.00004C7.33333 1.82323 7.2631 1.65366 7.13807 1.52864C7.01305 1.40361 6.84348 1.33337 6.66667 1.33337C6.48986 1.33337 6.32029 1.40361 6.19526 1.52864C6.07024 1.65366 6 1.82323 6 2.00004V6.00004C6 6.17685 6.07024 6.34642 6.19526 6.47145C6.32029 6.59647 6.48986 6.66671 6.66667 6.66671Z"
      fill="#666666" />
    <path
      d="M17.3333 6.66671C17.5101 6.66671 17.6797 6.59647 17.8047 6.47145C17.9298 6.34642 18 6.17685 18 6.00004V2.00004C18 1.82323 17.9298 1.65366 17.8047 1.52864C17.6797 1.40361 17.5101 1.33337 17.3333 1.33337C17.1565 1.33337 16.987 1.40361 16.8619 1.52864C16.7369 1.65366 16.6667 1.82323 16.6667 2.00004V6.00004C16.6667 6.17685 16.7369 6.34642 16.8619 6.47145C16.987 6.59647 17.1565 6.66671 17.3333 6.66671Z"
      fill="#666666" />
    <path d="M8.66667 4H15.3333V5.33333H8.66667V4Z" fill="#666666" />
  </g>
  <defs>
    <clipPath id="clip0_10403_163">
      <rect width="24" height="24" fill="white" />
    </clipPath>
  </defs>
</svg>